<?xml version="1.0" encoding="utf-8"?>
<!-- Generator: Adobe Illustrator 10.0, SVG Export Plug-In . SVG Version: 3.0.0 Build 77)  -->
<!DOCTYPE svg PUBLIC "-//W3C//DTD SVG 1.0//EN"    "http://www.w3.org/TR/2001/REC-SVG-20010904/DTD/svg10.dtd" [
	<!ENTITY ns_flows "http://ns.adobe.com/Flows/1.0/">
	<!ENTITY ns_svg "http://www.w3.org/2000/svg">
	<!ENTITY ns_xlink "http://www.w3.org/1999/xlink">
	<!ENTITY st0 "font-family:'Myriad-Roman';">
	<!ENTITY st1 "adobe-knockout:false;">
	<!ENTITY st2 "fill:none;stroke:#000000;adobe-knockout:false;">
	<!ENTITY st3 "adobe-knockout:true;">
	<!ENTITY st4 "fill:none;stroke:#000000;">
	<!ENTITY st5 "fill:#FFFFFF;adobe-knockout:false;">
	<!ENTITY st6 "fill:#FFFFFF;">
	<!ENTITY st7 "fill:#FFFFFF;stroke:#000000;">
	<!ENTITY st8 "font-size:24;">
]>
<svg  xmlns="&ns_svg;" xmlns:xlink="&ns_xlink;" xmlns:a="http://ns.adobe.com/AdobeSVGViewerExtensions/3.0/"
	 width="206.472" height="147.769" viewBox="0 0 206.472 147.769"
	 style="overflow:visible;enable-background:new 0 0 206.472 147.769" xml:space="preserve">
	<metadata>
<?xpacket begin='﻿' id='W5M0MpCehiHzreSzNTczkc9d'?><?adobe-xap-filters esc="CR"?>
<rdf:RDF xmlns:rdf='http://www.w3.org/1999/02/22-rdf-syntax-ns#' xmlns:iX='http://ns.adobe.com/iX/1.0/'>

 <rdf:Description about=''
  xmlns:pdf='http://ns.adobe.com/pdf/1.3/'>
  <pdf:Producer>Adobe PDF library 5.00</pdf:Producer>
  <!-- pdf:CreationDate is aliased -->
  <!-- pdf:ModDate is aliased -->
  <!-- pdf:Creator is aliased -->
 </rdf:Description>

 <rdf:Description about=''
  xmlns:xap='http://ns.adobe.com/xap/1.0/'>
  <xap:CreateDate>2003-11-24T20:05:52-04:00</xap:CreateDate>
  <xap:ModifyDate>2005-12-31T20:01:37Z</xap:ModifyDate>
  <xap:CreatorTool>Adobe Illustrator 10.0</xap:CreatorTool>
  <xap:MetadataDate>2003-11-24T20:05:53-05:00</xap:MetadataDate>
 </rdf:Description>

</rdf:RDF>
                                                                                                                                                                                                                                                                                                                                                                                                                                                                                                                                                                                                                                                                                                                                                                                                                                                                                                                                                                                                                                                                                                                                                                                                                                                                                                                                                                                                                                                                                                                                                                                                                                                                                                                                                                                                                                                                                                                                                                                                                                                                                                                                <?xpacket end='w'?>
			</metadata>
		<g id="Layer_1">
			<path style="&st6;" d="M206.472,147.769H0V0h206.472V147.769z"/>
			<path style="&st7;" d="M3.701,2.725h40.56v121.679H3.701V2.725z"/>
			<g>
				<path style="&st4;" d="M3.701,42.949h40.276"/>
				<path style="&st4;" d="M3.701,85.606h40.276"/>
			</g>
			<g>
				<path style="&st7;" d="M81.722,43.284V2.725H203.4v40.56H81.722z"/>
				<g>
					<path style="&st4;" d="M121.232,43.284V3.008"/>
					<path style="&st4;" d="M163.89,43.284V3.008"/>
				</g>
			</g>
			<g>
				<path style="&st7;" d="M81.722,93.498v-40.56H203.4v40.56H81.722z"/>
				<g>
					<path style="&st4;" d="M121.232,93.498V53.221"/>
					<path style="&st4;" d="M163.891,93.498V53.221"/>
				</g>
			</g>
			<g>
				<path style="&st7;" d="M81.722,143.711v-40.56H203.4v40.56H81.722z"/>
				<g>
					<path style="&st4;" d="M121.232,143.711v-40.277"/>
					<path style="&st4;" d="M163.891,143.711v-40.277"/>
				</g>
			</g>
			<g>
				<g style="&st3;">
					<path style="&st5;" d="M80.366,24.242c-2.84,1.054-6.363,2.852-8.547,4.755l1.72-4.755l-1.72-4.755
						C74.002,21.391,77.526,23.189,80.366,24.242z"/>
				</g>
				<g style="&st3;">
					<path style="&st2;" d="M24.644,24.242h49.687"/>
					<path style="&st1;" d="M80.366,24.242c-2.84,1.054-6.363,2.852-8.547,4.755l1.72-4.755l-1.72-4.755
						C74.002,21.391,77.526,23.189,80.366,24.242z"/>
				</g>
			</g>
			<g>
				<g style="&st3;">
					<path style="&st5;" d="M81.635,76.008c-2.996,0.447-6.813,1.482-9.342,2.896l2.661-4.3l-0.706-5.007
						C75.994,71.909,79.072,74.394,81.635,76.008z"/>
				</g>
				<g style="&st3;">
					<path style="&st2;" d="M23.561,63.807l52.167,10.96"/>
					<path style="&st1;" d="M81.635,76.008c-2.996,0.447-6.813,1.482-9.342,2.896l2.661-4.3l-0.706-5.007
						C75.994,71.909,79.072,74.394,81.635,76.008z"/>
				</g>
			</g>
			<g>
				<g style="&st3;">
					<path style="&st5;" d="M80.727,124.835c-3.028,0.058-6.948,0.592-9.637,1.669l3.192-3.921l-0.055-5.056
						C75.661,120.043,78.394,122.904,80.727,124.835z"/>
				</g>
				<g style="&st3;">
					<path style="&st2;" d="M22.452,104.467l52.578,18.376"/>
					<path style="&st1;" d="M80.727,124.835c-3.028,0.058-6.948,0.592-9.637,1.669l3.192-3.921l-0.055-5.056
						C75.661,120.043,78.394,122.904,80.727,124.835z"/>
				</g>
			</g>
			<text transform="matrix(1 0 0 1 94.1226 29.1377)"><tspan x="0" y="0" style="&st0; &st8;">1</tspan></text>
			<text transform="matrix(1 0 0 1 135.187 29.1377)"><tspan x="0" y="0" style="&st0; &st8;">2</tspan></text>
			<text transform="matrix(1 0 0 1 177.0239 29.1377)"><tspan x="0" y="0" style="&st0; &st8;">3</tspan></text>
			<text transform="matrix(1 0 0 1 94.1226 80.4023)"><tspan x="0" y="0" style="&st0; &st8;">4</tspan></text>
			<text transform="matrix(1 0 0 1 135.187 80.4023)"><tspan x="0" y="0" style="&st0; &st8;">5</tspan></text>
			<text transform="matrix(1 0 0 1 177.0239 80.4023)"><tspan x="0" y="0" style="&st0; &st8;">6</tspan></text>
			<text transform="matrix(1 0 0 1 94.1226 130.4888)"><tspan x="0" y="0" style="&st0; &st8;">7</tspan></text>
			<text transform="matrix(1 0 0 1 135.187 130.4888)"><tspan x="0" y="0" style="&st0; &st8;">8</tspan></text>
			<text transform="matrix(1 0 0 1 177.0239 130.4888)"><tspan x="0" y="0" style="&st0; &st8;">9</tspan></text>
		</g>
	</svg>
